<svg xmlns="http://www.w3.org/2000/svg" style="display:none">

  <!-- GitHub Icon -->
  <symbol id="github" viewBox="0 0 20 20">
    <path d="M10 0C4.478 0 0 4.59 0 10.253c0 4.527 2.867 8.367 6.839 9.724.5.092.682-.217.682-.483 0-.237-.009-.868-.014-1.704-2.782.604-3.369-1.34-3.369-1.34-.454-1.158-1.11-1.467-1.11-1.467-.908-.635.07-.622.07-.622 1.004.072 1.532 1.05 1.532 1.05.892 1.54 2.341 1.095 2.91.837.091-.663.35-1.095.636-1.347-2.221-.26-4.555-1.158-4.555-5.157 0-1.139.404-2.072 1.063-2.801-.106-.261-.461-1.31.101-2.732 0 0 .868-.282 2.845 1.07A9.857 9.857 0 0 1 10 4.844a9.85 9.85 0 0 1 2.603.351c1.977-1.352 2.844-1.07 2.844-1.07.563 1.422.208 2.471.102 2.732.661.729 1.062 1.662 1.062 2.801 0 4.009-2.337 4.893-4.565 5.147.359.309.678.919.678 1.852 0 1.338-.012 2.42-.012 2.75 0 .268.18.58.688.481C17.134 18.614 20 14.776 20 10.253 20 4.59 15.523 0 10 0z"/>
  </symbol>

  <!-- LinkedIn Icon -->
  <symbol id="linkedin" viewBox="0 0 382 382">
    <path fill="currentColor" d="M347.445,0H34.555C15.471,0,0,15.471,0,34.555v312.889C0,366.529,15.471,382,34.555,382h312.889
      C366.529,382,382,366.529,382,347.444V34.555C382,15.471,366.529,0,347.445,0z M118.207,329.844c0,5.554-4.502,10.056-10.056,10.056
      H65.345c-5.554,0-10.056-4.502-10.056-10.056V150.403c0-5.554,4.502-10.056,10.056-10.056h42.806
      c5.554,0,10.056,4.502,10.056,10.056V329.844z M86.748,123.432c-22.459,0-40.666-18.207-40.666-40.666S64.289,42.1,86.748,42.1
      s40.666,18.207,40.666,40.666S109.208,123.432,86.748,123.432z M341.91,330.654c0,5.106-4.14,9.246-9.246,9.246H286.73
      c-5.106,0-9.246-4.14-9.246-9.246v-84.168c0-12.556,3.683-55.021-32.813-55.021c-28.309,0-34.051,29.066-35.204,42.11v97.079
      c0,5.106-4.139,9.246-9.246,9.246h-44.426c-5.106,0-9.246-4.14-9.246-9.246V149.593c0-5.106,4.14-9.246,9.246-9.246h44.426
      c5.106,0,9.246,4.14,9.246,9.246v15.655c10.497-15.753,26.097-27.912,59.312-27.912c73.552,0,73.131,68.716,73.131,106.472
      L341.91,330.654L341.91,330.654z"/>
  </symbol>

</svg>
